HIERARCHY
ROOT Hips
{
	OFFSET 0.000000 0.000000 0.000000
	CHANNELS 6 Xposition Yposition Zposition Xrotation Yrotation Zrotation
	JOINT Spine
	{
		OFFSET 0.000000 0.044490 0.066735
		CHANNELS 3 Xrotation Yrotation Zrotation
		JOINT Spine1
		{
			OFFSET 0.000000 0.015451 0.087628
			CHANNELS 3 Xrotation Yrotation Zrotation
			JOINT Spine2
			{
				OFFSET 0.000000 0.007755 0.088641
				CHANNELS 3 Xrotation Yrotation Zrotation
				JOINT Spine3
				{
					OFFSET 0.000000 0.000000 0.088980
					CHANNELS 3 Xrotation Yrotation Zrotation
					JOINT Neck
					{
						OFFSET 0.000000 -0.033367 0.233572
						CHANNELS 3 Xrotation Yrotation Zrotation
						JOINT Head
						{
							OFFSET 0.000000 -0.021245 0.120488
							CHANNELS 3 Xrotation Yrotation Zrotation
							End Site
							{
								OFFSET 0.000000 0.000000 0.000000
							}
						}
					}
					JOINT RightShoulder
					{
						OFFSET -0.026917 -0.044862 0.145355
						CHANNELS 3 Xrotation Yrotation Zrotation
						JOINT RightArm
						{
							OFFSET -0.133690 0.000000 0.000000
							CHANNELS 3 Xrotation Yrotation Zrotation
							JOINT RightForeArm
							{
								OFFSET -0.257725 0.000000 0.000000
								CHANNELS 3 Xrotation Yrotation Zrotation
								JOINT RightHand
								{
									OFFSET -0.216749 0.000000 0.000000
									CHANNELS 3 Xrotation Yrotation Zrotation
									JOINT RightHandEnd
									{
										OFFSET -0.062518 0.000000 0.000000
										CHANNELS 3 Xrotation Yrotation Zrotation
										End Site
										{
											OFFSET 0.000000 0.000000 0.000000
										}
									}
									JOINT RightHandThumb1
									{
										OFFSET -0.025007 -0.041679 -0.016672
										CHANNELS 3 Xrotation Yrotation Zrotation
										End Site
										{
											OFFSET 0.000000 0.000000 0.000000
										}
									}
								}
							}
						}
					}
					JOINT LeftShoulder
					{
						OFFSET 0.026917 -0.044862 0.145355
						CHANNELS 3 Xrotation Yrotation Zrotation
						JOINT LeftArm
						{
							OFFSET 0.133690 0.000000 0.000000
							CHANNELS 3 Xrotation Yrotation Zrotation
							JOINT LeftForeArm
							{
								OFFSET 0.257725 0.000000 0.000000
								CHANNELS 3 Xrotation Yrotation Zrotation
								JOINT LeftHand
								{
									OFFSET 0.216749 0.000000 0.000000
									CHANNELS 3 Xrotation Yrotation Zrotation
									JOINT LeftHandEnd
									{
										OFFSET 0.062518 0.000000 0.000000
										CHANNELS 3 Xrotation Yrotation Zrotation
										End Site
										{
											OFFSET 0.000000 0.000000 0.000000
										}
									}
									JOINT LeftHandThumb1
									{
										OFFSET 0.025007 -0.041679 -0.016672
										CHANNELS 3 Xrotation Yrotation Zrotation
										End Site
										{
											OFFSET 0.000000 0.000000 0.000000
										}
									}
								}
							}
						}
					}
				}
			}
		}
	}
	JOINT RightUpLeg
	{
		OFFSET -0.079855 0.000000 -0.023329
		CHANNELS 3 Xrotation Yrotation Zrotation
		JOINT RightLeg
		{
			OFFSET 0.000000 0.000000 -0.366572
			CHANNELS 3 Xrotation Yrotation Zrotation
			JOINT RightFoot
			{
				OFFSET 0.000000 0.000000 -0.363650
				CHANNELS 3 Xrotation Yrotation Zrotation
				JOINT RightToeBase
				{
					OFFSET 0.000000 -0.114715 -0.041753
					CHANNELS 3 Xrotation Yrotation Zrotation
					End Site
					{
						OFFSET 0.000000 0.000000 0.000000
					}
				}
			}
		}
	}
	JOINT LeftUpLeg
	{
		OFFSET 0.079855 0.000000 -0.023329
		CHANNELS 3 Xrotation Yrotation Zrotation
		JOINT LeftLeg
		{
			OFFSET 0.000000 0.000000 -0.366572
			CHANNELS 3 Xrotation Yrotation Zrotation
			JOINT LeftFoot
			{
				OFFSET 0.000000 0.000000 -0.363650
				CHANNELS 3 Xrotation Yrotation Zrotation
				JOINT LeftToeBase
				{
					OFFSET 0.000000 -0.114715 -0.041753
					CHANNELS 3 Xrotation Yrotation Zrotation
					End Site
					{
						OFFSET 0.000000 0.000000 0.000000
					}
				}
			}
		}
	}
}
MOTION
Frames: 13
Frame Time: 0.033333
-0.599158 -0.421665 0.779826 4.654200 -1.378600 91.553700 0.170000 2.423700 -0.355600 -0.258000 0.327600 0.008800 2.728600 0.392100 0.053900 0.732100 0.017200 0.080200 -10.916000 1.129500 -1.442600 8.018800 -3.838300 -3.210300 13.917700 -8.147100 17.110700 41.699300 -17.039900 50.065400 0.000000 0.000000 30.049100 -0.408600 -42.718400 -32.609500 0.000000 0.000000 0.000000 0.000000 0.000000 0.000000 2.829400 0.413300 -10.290000 -27.107400 55.417600 -10.199200 -0.000100 -0.000100 -101.413000 40.840500 3.264500 21.949700 0.000000 0.000000 0.000000 0.000000 0.000000 0.000000 -26.389100 6.704400 -7.819400 41.023300 0.000000 0.000000 -14.840800 -4.740200 -12.468300 -26.217500 0.000000 0.000000 12.103300 9.673600 21.359200 2.952600 0.000000 0.000000 -14.722900 -0.579200 -2.145300 0.253900 0.000000 0.000000 
-0.577606 -0.424155 0.777260 4.734300 -2.317800 91.831200 0.449700 2.657800 -0.319200 -0.053400 0.425200 -0.037900 2.906800 0.397300 -1.038200 0.723600 0.161200 -0.301500 -10.831200 0.329400 -1.576400 7.908400 -3.175000 -2.356700 13.385000 -7.685500 15.058300 36.673700 -20.464000 44.494100 0.000000 0.000000 27.795600 4.471400 -41.019200 -34.121300 0.000000 0.000000 0.000000 0.000000 0.000000 0.000000 4.152300 1.832400 -10.547600 -18.097900 54.538000 -14.024600 -0.000100 -0.000100 -100.520100 44.996800 -2.692300 19.582600 0.000000 0.000000 0.000000 0.000000 0.000000 0.000000 -25.560500 6.238200 -9.020100 35.216700 0.000000 0.000000 -14.001300 -3.372300 -12.890800 -25.828300 0.000000 0.000000 13.587300 9.036900 19.693400 5.420600 0.000000 0.000000 -16.092500 -0.012000 -0.640300 -0.978100 0.000000 0.000000 
-0.554896 -0.427393 0.774921 4.643800 -3.066600 91.418600 0.519000 2.535300 -0.199800 -0.039800 0.306100 -0.076700 2.944300 0.698200 -1.688100 0.731100 0.352200 -0.640700 -10.244700 -0.156700 -1.435000 7.784400 -2.793700 -1.530000 12.191600 -7.292300 13.799200 27.131200 -25.652100 36.129000 0.000000 0.000000 31.552700 9.450000 -34.089400 -36.721300 0.000000 0.000000 0.000000 0.000000 0.000000 0.000000 5.273600 3.815100 -10.787900 -9.160400 53.301800 -18.502800 -0.000100 -0.000100 -98.430500 51.177600 -11.968100 17.357500 0.000000 0.000000 0.000000 0.000000 0.000000 0.000000 -24.736800 5.593100 -9.422600 34.645500 0.000000 0.000000 -13.285200 -1.374000 -13.026500 -20.964300 0.000000 0.000000 14.050200 8.116000 18.139000 9.587800 0.000000 0.000000 -17.572500 0.906200 1.535700 -2.899400 0.000000 0.000000 
-0.532270 -0.431792 0.774136 4.383800 -3.446600 90.365200 0.345700 2.263800 -0.089700 -0.220400 0.095300 -0.106100 2.787600 0.953300 -1.846600 0.750600 0.512100 -0.841400 -9.378100 -0.219300 -0.933500 7.923100 -2.722300 -0.823100 10.739900 -7.521600 13.712500 16.028200 -28.914900 26.417200 0.000000 0.000000 39.607600 18.451200 -20.823200 -38.355400 0.000000 0.000000 0.000000 0.000000 0.000000 0.000000 5.943600 6.039100 -10.913800 -1.951700 52.324000 -22.382400 -0.000100 -0.000100 -95.226900 56.987900 -22.249900 15.996900 0.000000 0.000000 0.000000 0.000000 0.000000 0.000000 -23.575900 4.702600 -8.900700 35.985100 0.000000 0.000000 -13.362000 0.261700 -13.369600 -11.396800 0.000000 0.000000 12.152400 6.980100 15.588600 17.374800 0.000000 0.000000 -17.987600 1.925200 6.158300 -7.497700 0.000000 0.000000 
-0.511320 -0.438277 0.775160 3.614400 -3.371900 88.983800 -0.045900 1.808000 -0.164000 -0.541500 -0.166000 -0.137300 2.619700 0.892100 -1.667100 0.737000 0.533700 -0.820800 -8.675200 -0.068000 -0.184000 8.248200 -2.541100 -0.239400 9.684300 -8.106900 14.187900 6.002700 -29.552200 19.122700 0.000000 0.000100 49.192800 29.487000 -5.238300 -38.937100 0.000000 0.000000 0.000000 0.000000 0.000000 0.000000 6.123200 7.455000 -10.792700 2.870300 52.837500 -25.349800 -0.000100 -0.000100 -91.437100 60.909600 -31.506300 15.223900 0.000000 0.000000 0.000000 0.000000 0.000000 0.000000 -22.022700 3.281400 -8.816300 35.917300 0.000000 0.000000 -13.869800 1.090200 -13.212900 -2.474100 0.000000 0.000000 6.984300 5.140600 13.758600 29.852100 0.000000 0.000000 -15.429300 3.890100 11.494000 -15.898900 0.000000 0.000000 
-0.492051 -0.447609 0.776412 1.976200 -3.213600 87.399100 -0.427100 0.872600 -0.252900 -0.750600 -0.385200 -0.142300 2.524200 0.492600 -1.334900 0.683700 0.420300 -0.622900 -8.172800 -0.061000 0.437100 8.240400 -2.105400 0.266000 9.141600 -8.282600 14.591600 -2.412600 -29.919000 15.584100 0.000000 0.000100 59.556700 38.219500 7.987800 -38.646800 0.000000 0.000000 0.000000 0.000000 0.000000 0.000000 5.763100 7.301600 -10.503600 6.182800 55.053900 -27.972300 -0.000100 -0.000100 -87.545900 63.290200 -39.419900 14.414800 0.000000 0.000000 0.000000 0.000000 0.000000 0.000000 -20.253700 0.858600 -9.575500 34.738500 0.000000 0.000000 -14.487800 1.579300 -12.216400 1.789700 0.000000 0.000000 0.278300 1.597900 14.406500 43.824100 0.000000 0.000000 -9.208400 5.654600 14.222000 -24.340800 0.000000 0.000000 
-0.474002 -0.457197 0.776356 0.441200 -3.337700 85.831700 -0.557500 -0.022300 -0.188400 -0.731700 -0.483700 -0.126200 2.452200 0.172300 -0.958600 0.647100 0.262600 -0.363600 -7.722600 -0.268100 0.685400 7.710100 -1.772000 0.673300 8.877600 -8.214900 14.876600 -8.761200 -30.834500 15.300800 0.000000 0.000100 69.773400 43.153700 16.117000 -35.854800 0.000000 0.000000 0.000000 0.000000 0.000000 0.000000 5.109300 6.235800 -10.460600 8.584000 57.347300 -30.376700 -0.000100 -0.000100 -83.872200 65.524000 -46.607700 13.283800 0.000000 0.000000 0.000000 0.000000 0.000000 0.000000 -18.522300 -1.452300 -10.207400 34.337700 0.000000 0.000000 -15.369700 2.118800 -11.031400 1.807000 0.000000 0.000000 -6.151200 -2.272400 15.437800 55.381400 0.000000 0.000000 -3.151700 4.435400 14.955200 -27.551000 0.000000 0.000000 
-0.457058 -0.464927 0.775190 -0.329100 -3.878800 84.709600 -0.330600 -0.512000 -0.022400 -0.583200 -0.371200 -0.090100 2.417500 0.068100 -0.710000 0.664600 0.157000 -0.181400 -7.385100 -0.528500 0.658800 7.108200 -1.826800 0.925200 8.767500 -8.696200 15.422100 -12.453400 -31.276500 17.569200 0.000000 0.000100 78.497600 44.844000 18.301500 -31.688100 0.000000 0.000000 0.000000 0.000000 0.000000 0.000000 4.882500 5.475600 -10.961900 9.498000 58.015900 -32.110500 0.000000 -0.000100 -80.777300 68.297000 -52.728100 12.103800 0.000000 0.000000 0.000000 0.000000 0.000000 0.000000 -16.814100 -2.864900 -9.929700 34.975200 0.000000 0.000000 -16.656600 2.677800 -10.783200 0.670100 0.000000 0.000000 -12.008800 -4.790400 15.204200 62.821400 0.000000 0.000000 -1.276800 1.360900 15.411600 -27.131700 0.000000 0.000000 
-0.440883 -0.471259 0.774184 -0.707700 -4.681800 84.137900 0.030900 -0.823600 0.154900 -0.401800 -0.202200 -0.050700 2.560000 0.118900 -0.655800 0.724500 0.115500 -0.139400 -7.264100 -0.707900 0.605900 6.872900 -2.128900 1.033500 8.887200 -9.648300 16.389000 -13.439900 -30.879200 21.699500 0.000000 0.000100 85.030800 45.239300 16.813000 -28.063200 0.000000 0.000000 0.000000 0.000000 0.000000 0.000000 5.295500 5.266100 -11.778000 9.196700 57.243300 -33.301900 0.000000 -0.000100 -78.513900 70.884400 -56.331400 11.346900 0.000000 0.000000 0.000000 0.000000 0.000000 0.000000 -14.959500 -3.872700 -9.025900 35.551000 0.000000 0.000000 -18.053400 3.106900 -11.608500 0.457000 0.000000 0.000000 -17.249600 -5.855700 13.461000 65.355900 0.000000 0.000000 -2.291100 -0.470700 16.108700 -26.067400 0.000000 0.000000 
-0.424612 -0.476984 0.774062 -1.073400 -5.693700 83.720300 0.413400 -1.143100 0.342700 -0.179600 -0.149400 -0.028800 2.855000 0.243200 -0.627200 0.785900 0.104900 -0.149400 -7.209200 -0.709600 0.680400 6.933200 -2.412000 1.057600 9.318400 -10.252500 17.342900 -12.204200 -30.506100 27.206600 0.000000 0.000100 89.229600 45.710000 13.079000 -25.663400 0.000000 0.000000 0.000000 0.000000 0.000000 0.000000 5.673500 5.120700 -12.368700 9.530900 56.386000 -34.993400 0.000000 -0.000100 -76.703100 72.234600 -57.107200 11.236300 0.000000 0.000000 0.000000 0.000000 0.000000 0.000000 -12.701600 -4.862700 -8.129800 35.577400 0.000000 0.000000 -19.202400 3.594400 -12.698500 0.435800 0.000000 0.000000 -21.057600 -6.076900 11.211600 62.928900 0.000000 0.000000 -2.980700 -0.241700 16.220300 -25.487800 0.000000 0.000000 
-0.408442 -0.482056 0.774154 -1.386700 -6.545400 83.048200 0.660600 -1.447700 0.524300 -0.003500 -0.236700 -0.014100 3.052400 0.399300 -0.332000 0.823800 0.114400 -0.114300 -7.031400 -0.494200 0.900000 7.034100 -2.597700 1.020300 9.743900 -10.350100 18.050100 -9.270500 -30.520800 33.237400 0.000000 0.000100 91.306800 46.597200 6.611300 -25.180300 0.000000 0.000000 0.000000 0.000000 0.000000 0.000000 5.434300 4.876800 -12.474200 11.586800 56.187600 -37.689800 0.000000 -0.000100 -74.636100 72.374200 -56.596200 11.659700 0.000000 0.000000 0.000000 0.000000 0.000000 0.000000 -10.498000 -5.648300 -7.565900 35.481800 0.000000 0.000000 -20.024100 4.266000 -13.294000 -0.320700 0.000000 0.000000 -23.312900 -6.014900 9.933200 56.596300 0.000000 0.000000 -3.135500 -0.235600 14.375000 -25.480900 0.000000 0.000000 
-0.392958 -0.486026 0.774083 -1.398500 -6.976400 82.049200 0.672900 -1.618100 0.653300 0.031000 -0.385300 0.020200 3.069400 0.631500 0.330600 0.858200 0.119400 0.024000 -6.828800 -0.111700 1.228500 7.132100 -2.721000 0.910700 9.776000 -10.436700 18.859100 -5.527600 -30.572600 38.225800 0.000000 0.000100 91.881400 47.249000 -2.740600 -26.682300 0.000000 0.000000 0.000000 0.000000 0.000000 0.000000 4.962700 4.861500 -12.321100 14.519300 56.227700 -40.826100 0.000000 -0.000100 -72.128100 72.264400 -55.981100 12.592300 0.000000 0.000000 0.000000 0.000000 0.000000 0.000000 -8.876900 -5.881400 -7.324300 35.655600 0.000000 0.000000 -20.804200 4.767100 -13.210100 -0.987000 0.000000 0.000000 -24.381000 -5.674100 10.352400 47.423900 0.000000 0.000000 -3.732800 -0.530000 10.190300 -24.904100 0.000000 0.000000 
-0.377668 -0.489041 0.774253 -1.183200 -7.315000 80.905300 0.603200 -1.713900 0.732000 -0.021600 -0.488500 0.058700 3.088000 0.903900 1.197900 0.913200 0.120600 0.217400 -6.724300 0.315000 1.610100 7.239700 -2.844400 0.769000 9.684100 -10.462900 19.907900 -2.277800 -31.132600 41.382700 0.000000 0.000100 91.364700 46.838300 -12.825500 -29.084200 0.000000 0.000000 0.000000 0.000000 0.000000 0.000000 4.950100 5.146400 -12.158400 17.275200 55.923700 -43.845300 0.000000 -0.000100 -69.551100 72.380900 -54.983700 14.050000 0.000000 0.000000 0.000000 0.000000 0.000000 0.000000 -7.507400 -5.693400 -7.287700 35.977000 0.000000 0.000000 -21.717800 4.888800 -12.932000 -0.750400 0.000000 0.000000 -24.161700 -4.948100 12.006400 36.999300 0.000000 0.000000 -2.472400 2.428300 4.869300 -23.938300 0.000000 0.000000 
